<svg xmlns="http://www.w3.org/2000/svg" version="1.1" xmlns:xlink="http://www.w3.org/1999/xlink" xmlns:svgjs="http://svgjs.dev/svgjs" width="1000" height="623" viewBox="0 0 1000 623"><g transform="matrix(1,0,0,1,-0.6060606060606233,0.2522267206477409)"><svg viewBox="0 0 396 247" data-background-color="#ffffff" preserveAspectRatio="xMidYMid meet" height="623" width="1000" xmlns="http://www.w3.org/2000/svg" xmlns:xlink="http://www.w3.org/1999/xlink"><g id="tight-bounds" transform="matrix(1,0,0,1,0.2400000000000091,-0.09999999999999432)"><svg viewBox="0 0 395.52 247.2" height="247.2" width="395.52"><g><svg></svg></g><g><svg viewBox="0 0 395.52 247.2" height="247.2" width="395.52"><g transform="matrix(1,0,0,1,143.19942857142857,47.215199999999996)"><svg viewBox="0 0 109.12114285714284 152.7696" height="152.7696" width="109.12114285714284"><g><svg viewBox="0 0 109.12114285714284 152.7696" height="152.7696" width="109.12114285714284"><g><svg viewBox="0 0 109.12114285714284 152.7696" height="152.7696" width="109.12114285714284"><g><svg viewBox="0 0 109.12114285714284 152.7696" height="152.7696" width="109.12114285714284"><g id="textblocktransform"><svg viewBox="0 0 109.12114285714284 152.7696" height="152.7696" width="109.12114285714284" id="textblock"><g><svg viewBox="0 0 109.12114285714284 152.7696" height="152.7696" width="109.12114285714284"><g transform="matrix(1,0,0,1,0,0)"><svg width="109.12114285714284" viewBox="3.0999999046325684 -35.20000076293945 25.5 35.70000076293945" height="152.7696" data-palette-color="#ee3e38"><path d="M11.8 0.5Q6.75 0.5 4.93-3.35 3.1-7.2 3.1-11.55L3.1-11.55Q3.1-16.65 5.33-22.2 7.55-27.75 11.4-31.48 15.25-35.2 19.95-35.2L19.95-35.2Q24.55-35.2 26.58-31.65 28.6-28.1 28.6-22.8L28.6-22.8Q28.6-16.75 26.23-11.38 23.85-6 19.98-2.75 16.1 0.5 11.8 0.5L11.8 0.5ZM13.85-2.3Q17-2.3 19.38-5.1 21.75-7.9 23.03-12.28 24.3-16.65 24.3-21.2L24.3-21.2Q24.3-26.15 22.78-29.3 21.25-32.45 18.25-32.45L18.25-32.45Q15.6-32.45 13.05-29.98 10.5-27.5 8.9-23.15 7.3-18.8 7.3-13.45L7.3-13.45Q7.3-8.05 9.03-5.18 10.75-2.3 13.85-2.3L13.85-2.3Z" opacity="1" transform="matrix(1,0,0,1,0,0)" fill="#ee3e38" class="undefined-text-0" data-fill-palette-color="primary" id="text-0"></path></svg></g></svg></g></svg></g></svg></g></svg></g></svg></g></svg></g><g><path d="M178.161 0c30.402 0 58.24 10.976 79.768 29.183l-11.147 0c-19.26-14.022-42.974-22.294-68.621-22.295-25.647 0-49.361 8.272-68.622 22.295l-11.147 0c21.528-18.206 49.366-29.183 79.769-29.183zM178.161 247.2c-30.402 0-58.24-10.976-79.769-29.183l11.147 0c19.26 14.022 42.974 22.294 68.622 22.295 25.647 0 49.361-8.272 68.621-22.295l11.147 0c-21.528 18.206-49.366 29.183-79.768 29.183z" fill="#ee3e38" stroke="transparent" data-fill-palette-color="tertiary"></path></g></svg></g><defs></defs></svg><rect width="395.52" height="247.2" fill="none" stroke="none" visibility="hidden"></rect></g></svg></g></svg>